<?xml version="1.0" standalone="no"?>
<!DOCTYPE svg PUBLIC "-//W3C//DTD SVG 20010904//EN"
 "http://www.w3.org/TR/2001/REC-SVG-20010904/DTD/svg10.dtd">
<svg version="1.0" xmlns="http://www.w3.org/2000/svg"
 width="404.000000pt" height="404.000000pt" viewBox="0 0 404.000000 404.000000"
 preserveAspectRatio="xMidYMid meet">
<metadata>
Created by potrace 1.14, written by Peter Selinger 2001-2017
</metadata>
<g transform="translate(0.000000,404.000000) scale(0.100000,-0.100000)"
fill="#000000" stroke="none">
<path d="M2255 3595 c-1329 -671 -1588 -801 -1907 -961 -183 -92 -335 -168
-337 -170 -2 -2 103 -217 234 -476 131 -260 393 -781 583 -1158 189 -377 345
-686 347 -688 1 -1 188 92 416 206 643 325 2043 1029 2249 1132 102 51 187 94
189 96 2 2 -112 234 -254 516 -273 543 -810 1608 -825 1636 -4 10 -26 52 -47
94 -21 43 -40 77 -43 77 -3 -1 -275 -137 -605 -304z"/>
</g>
</svg>
