<?xml version="1.0" standalone="no"?>
<!DOCTYPE svg PUBLIC "-//W3C//DTD SVG 20010904//EN"
 "http://www.w3.org/TR/2001/REC-SVG-20010904/DTD/svg10.dtd">
<svg version="1.0" xmlns="http://www.w3.org/2000/svg"
 width="260.000000pt" height="260.000000pt" viewBox="0 0 260.000000 260.000000"
 preserveAspectRatio="xMidYMid meet">
<metadata>
Created by potrace 1.14, written by Peter Selinger 2001-2017
</metadata>
<g transform="translate(0.000000,260.000000) scale(0.100000,-0.100000)"
fill="#000000" stroke="none">
<path d="M1975 2365 c-49 -13 -178 -47 -285 -75 -107 -28 -253 -66 -325 -85
-166 -44 -370 -97 -560 -147 -82 -21 -157 -41 -165 -43 -8 -2 -91 -24 -185
-49 -93 -24 -197 -52 -230 -61 -33 -9 -71 -18 -85 -21 -50 -9 -115 -32 -113
-40 2 -12 99 -389 123 -479 10 -38 35 -131 54 -205 62 -239 77 -294 97 -368
11 -40 22 -81 24 -90 4 -22 70 -275 96 -370 11 -40 22 -81 24 -90 4 -22 22
-92 42 -160 14 -51 17 -54 41 -48 15 3 38 9 52 11 14 3 39 10 55 15 17 5 73
20 125 34 52 13 149 39 215 56 166 44 267 70 285 74 8 2 86 23 173 46 87 23
166 43 175 45 10 3 33 9 52 14 119 31 373 98 615 161 154 40 281 74 283 75 2
2 -28 123 -67 270 -39 146 -73 276 -75 288 -3 12 -16 63 -30 112 -13 50 -43
162 -66 250 -23 88 -57 221 -77 295 -19 74 -37 142 -39 150 -42 175 -121 454
-129 456 -5 1 -50 -8 -100 -21z"/>
</g>
</svg>
