<?xml version="1.0" standalone="no"?>
<!DOCTYPE svg PUBLIC "-//W3C//DTD SVG 20010904//EN"
 "http://www.w3.org/TR/2001/REC-SVG-20010904/DTD/svg10.dtd">
<svg version="1.0" xmlns="http://www.w3.org/2000/svg"
 width="431.000000pt" height="431.000000pt" viewBox="0 0 431.000000 431.000000"
 preserveAspectRatio="xMidYMid meet">
<metadata>
Created by potrace 1.14, written by Peter Selinger 2001-2017
</metadata>
<g transform="translate(0.000000,431.000000) scale(0.100000,-0.100000)"
fill="#000000" stroke="none">
<path d="M2240 3989 c-338 -171 -977 -493 -1420 -716 -443 -223 -808 -407
-812 -409 -3 -2 65 -145 151 -317 247 -489 1148 -2278 1215 -2414 34 -68 66
-123 71 -123 6 0 136 63 290 141 486 245 1409 710 1997 1006 l567 285 -343
682 c-189 374 -511 1014 -716 1421 -205 407 -375 743 -379 747 -3 4 -283 -133
-621 -303z"/>
</g>
</svg>
